<?xml version="1.0" encoding="UTF-8" standalone="no"?>
<!DOCTYPE svg PUBLIC "-//W3C//DTD SVG 1.1//EN" "http://www.w3.org/Graphics/SVG/1.1/DTD/svg11.dtd">
<!-- 由 Microsoft Visio, SVG Export 生成 绘图2.svg 页-1 -->
<svg xmlns="http://www.w3.org/2000/svg" xmlns:xlink="http://www.w3.org/1999/xlink" xmlns:ev="http://www.w3.org/2001/xml-events"
		xmlns:v="http://schemas.microsoft.com/visio/2003/SVGExtensions/" width="7.60704in" height="3.99027in"
		viewBox="0 0 547.707 287.299" xml:space="preserve" color-interpolation-filters="sRGB" class="st14">
	<v:documentProperties v:langID="2052" v:metric="true" v:viewMarkup="false"/>

	<style type="text/css">
	<![CDATA[
		.st1 {fill:#d3d3ab;stroke:#164326;stroke-linecap:round;stroke-linejoin:round;stroke-width:0.24}
		.st2 {fill:#164326;font-family:宋体;font-size:1.5em}
		.st3 {fill:#164326;font-family:宋体;font-size:0.916672em}
		.st4 {font-size:1em}
		.st5 {fill:#000000}
		.st6 {stroke:#000000;stroke-linecap:round;stroke-linejoin:round;stroke-width:0.239976}
		.st7 {fill:#ffffff;stroke:none;stroke-linecap:butt;stroke-width:7.2}
		.st8 {fill:#000000;font-family:宋体;font-size:1.00001em}
		.st9 {stroke:#000000;stroke-dasharray:0.75,0.75;stroke-linecap:round;stroke-linejoin:round;stroke-width:0.25}
		.st10 {fill:#164326;font-family:宋体;font-size:1.16666em}
		.st11 {stroke:#000000;stroke-dasharray:1.67983,1.19988;stroke-linecap:round;stroke-linejoin:round;stroke-width:0.239976}
		.st12 {fill:none;stroke:none;stroke-linecap:round;stroke-linejoin:round;stroke-width:0.75}
		.st13 {stroke:#164326;stroke-dasharray:0,3;stroke-linecap:round;stroke-linejoin:round;stroke-width:1}
		.st14 {fill:none;fill-rule:evenodd;font-size:12px;overflow:visible;stroke-linecap:square;stroke-miterlimit:3}
	]]>
	</style>

	<g v:mID="0" v:index="1" v:groupContext="foregroundPage">
		<title>页-1</title>
		<v:pageProperties v:drawingScale="0.0393701" v:pageScale="0.0393701" v:drawingUnits="24" v:shadowOffsetX="8.50394"
				v:shadowOffsetY="-8.50394"/>
		<g id="shape45-1" v:mID="45" v:groupContext="shape" transform="translate(171.571,-247.114)">
			<title>框.108</title>
			<desc>Spout</desc>
			<v:userDefs>
				<v:ud v:nameU="visVersion" v:val="VT0(14):26"/>
			</v:userDefs>
			<v:textBlock v:margins="rect(4,4,4,4)" v:tabSpace="42.5197"/>
			<v:textRect cx="29.7638" cy="273.126" width="59.53" height="28.3465"/>
			<rect x="0" y="258.953" width="59.5276" height="28.3465" class="st1"/>
			<text x="7.26" y="278.53" class="st2" v:langID="2052"><v:paragraph v:horizAlign="1"/><v:tabList/>Spout</text>		</g>
		<g id="shape46-4" v:mID="46" v:groupContext="shape" transform="translate(201.335,-261.287)">
			<title>单箭头.109</title>
			<v:userDefs>
				<v:ud v:nameU="ControlX" v:val="VT0(0.059055118110236):24"/>
				<v:ud v:nameU="Scale" v:val="VT0(1):26"/>
				<v:ud v:nameU="AntiScale" v:val="VT0(1):26"/>
				<v:ud v:nameU="visVersion" v:val="VT0(14):26"/>
				<v:ud v:nameU="ControlX" v:prompt="" v:val="VT0(0):26"/>
			</v:userDefs>
		</g>
		<g id="shape47-5" v:mID="47" v:groupContext="shape" transform="translate(249.949,-247.114)">
			<title>框.110</title>
			<desc>Pre-processing bolt</desc>
			<v:userDefs>
				<v:ud v:nameU="visVersion" v:val="VT0(14):26"/>
			</v:userDefs>
			<v:textBlock v:margins="rect(4,4,4,4)" v:tabSpace="42.5197"/>
			<v:textRect cx="43.937" cy="273.126" width="87.88" height="28.3465"/>
			<rect x="0" y="258.953" width="87.874" height="28.3465" class="st1"/>
			<text x="5.44" y="269.83" class="st3" v:langID="2052"><v:paragraph v:horizAlign="1"/><v:tabList/>Pre-processing <tspan
						x="32.94" dy="1.2em" class="st4">bolt</tspan></text>		</g>
		<g id="shape48-9" v:mID="48" v:groupContext="shape" transform="translate(231.098,-261.287)">
			<title>单箭头.111</title>
			<v:userDefs>
				<v:ud v:nameU="ControlX" v:val="VT0(0.059055118110236):24"/>
				<v:ud v:nameU="Scale" v:val="VT0(1):26"/>
				<v:ud v:nameU="AntiScale" v:val="VT0(1):26"/>
				<v:ud v:nameU="visVersion" v:val="VT0(14):26"/>
			</v:userDefs>
			<path d="M14.6 285.17 L14.6 289.43 L18.85 287.3 L14.6 285.17 Z" class="st5"/>
			<path d="M14.6 285.17 L14.6 289.43 L18.85 287.3 L14.6 285.17" class="st6"/>
			<path d="M0 287.3 L14.6 287.3" class="st6"/>
		</g>
		<g id="shape49-13" v:mID="49" v:groupContext="shape" transform="translate(581.185,40.185) rotate(90)">
			<title>单箭头.112</title>
			<v:userDefs>
				<v:ud v:nameU="ControlX" v:val="VT0(0.059055118110236):24"/>
				<v:ud v:nameU="Scale" v:val="VT0(1):26"/>
				<v:ud v:nameU="AntiScale" v:val="VT0(1):26"/>
				<v:ud v:nameU="visVersion" v:val="VT0(14):26"/>
			</v:userDefs>
			<path d="M25.51 285.17 L25.51 289.43 L29.76 287.3 L25.51 285.17 Z" class="st5"/>
			<path d="M25.51 285.17 L25.51 289.43 L29.76 287.3 L25.51 285.17" class="st6"/>
			<path d="M0 287.3 L25.51 287.3" class="st6"/>
		</g>
		<g id="shape50-17" v:mID="50" v:groupContext="shape" transform="translate(249.949,-189.004)">
			<title>框.113</title>
			<desc>LB_Kim bolt</desc>
			<v:userDefs>
				<v:ud v:nameU="visVersion" v:val="VT0(14):26"/>
			</v:userDefs>
			<v:textBlock v:margins="rect(4,4,4,4)" v:tabSpace="42.5197"/>
			<v:textRect cx="43.937" cy="273.126" width="87.88" height="28.3465"/>
			<rect x="0" y="258.953" width="87.874" height="28.3465" class="st1"/>
			<text x="13.69" y="276.43" class="st3" v:langID="2052"><v:paragraph v:horizAlign="1"/><v:tabList/>LB_Kim bolt</text>		</g>
		<g id="shape51-20" v:mID="51" v:groupContext="shape" transform="translate(249.949,-130.894)">
			<title>框.114</title>
			<desc>LB_Keogh1 bolt</desc>
			<v:userDefs>
				<v:ud v:nameU="visVersion" v:val="VT0(14):26"/>
			</v:userDefs>
			<v:textBlock v:margins="rect(4,4,4,4)" v:tabSpace="42.5197"/>
			<v:textRect cx="43.937" cy="273.126" width="87.88" height="28.3465"/>
			<rect x="0" y="258.953" width="87.874" height="28.3465" class="st1"/>
			<text x="5.44" y="276.43" class="st3" v:langID="2052"><v:paragraph v:horizAlign="1"/><v:tabList/>LB_Keogh1 bolt</text>		</g>
		<g id="shape52-23" v:mID="52" v:groupContext="shape" transform="translate(581.185,98.2953) rotate(90)">
			<title>Single arrowhead.115</title>
			<v:userDefs>
				<v:ud v:nameU="ControlX" v:val="VT0(0.059055118110236):24"/>
				<v:ud v:nameU="Scale" v:val="VT0(1):26"/>
				<v:ud v:nameU="AntiScale" v:val="VT0(1):26"/>
				<v:ud v:nameU="visVersion" v:val="VT0(14):26"/>
			</v:userDefs>
			<path d="M25.51 285.17 L25.51 289.43 L29.76 287.3 L25.51 285.17 Z" class="st5"/>
			<path d="M25.51 285.17 L25.51 289.43 L29.76 287.3 L25.51 285.17" class="st6"/>
			<path d="M0 287.3 L25.51 287.3" class="st6"/>
		</g>
		<g id="shape53-27" v:mID="53" v:groupContext="shape" transform="translate(581.185,156.406) rotate(90)">
			<title>单箭头.116</title>
			<v:userDefs>
				<v:ud v:nameU="ControlX" v:val="VT0(0.059055118110236):24"/>
				<v:ud v:nameU="Scale" v:val="VT0(1):26"/>
				<v:ud v:nameU="AntiScale" v:val="VT0(1):26"/>
				<v:ud v:nameU="visVersion" v:val="VT0(14):26"/>
			</v:userDefs>
			<path d="M25.51 285.17 L25.51 289.43 L29.76 287.3 L25.51 285.17 Z" class="st5"/>
			<path d="M25.51 285.17 L25.51 289.43 L29.76 287.3 L25.51 285.17" class="st6"/>
			<path d="M0 287.3 L25.51 287.3" class="st6"/>
		</g>
		<g id="shape54-31" v:mID="54" v:groupContext="shape" transform="translate(249.949,-72.7835)">
			<title>Box.117</title>
			<desc>LB_Keogh2 bolt</desc>
			<v:userDefs>
				<v:ud v:nameU="visVersion" v:val="VT0(14):26"/>
			</v:userDefs>
			<v:textBlock v:margins="rect(4,4,4,4)" v:tabSpace="42.5197"/>
			<v:textRect cx="43.937" cy="273.126" width="87.88" height="28.3465"/>
			<rect x="0" y="258.953" width="87.874" height="28.3465" class="st1"/>
			<text x="5.44" y="276.43" class="st3" v:langID="2052"><v:paragraph v:horizAlign="1"/><v:tabList/>LB_Keogh2 bolt</text>		</g>
		<g id="shape55-34" v:mID="55" v:groupContext="shape" transform="translate(249.949,-14.6732)">
			<title>Box.118</title>
			<desc>DTW bolt</desc>
			<v:userDefs>
				<v:ud v:nameU="visVersion" v:val="VT0(14):26"/>
			</v:userDefs>
			<v:textBlock v:margins="rect(4,4,4,4)" v:tabSpace="42.5197"/>
			<v:textRect cx="43.937" cy="273.126" width="87.88" height="28.3465"/>
			<rect x="0" y="258.953" width="87.874" height="28.3465" class="st1"/>
			<text x="21.94" y="276.43" class="st3" v:langID="2052"><v:paragraph v:horizAlign="1"/><v:tabList/>DTW bolt</text>		</g>
		<g id="shape56-37" v:mID="56" v:groupContext="shape" transform="translate(581.185,214.516) rotate(90)">
			<title>单箭头.119</title>
			<v:userDefs>
				<v:ud v:nameU="ControlX" v:val="VT0(0.059055118110236):24"/>
				<v:ud v:nameU="Scale" v:val="VT0(1):26"/>
				<v:ud v:nameU="AntiScale" v:val="VT0(1):26"/>
				<v:ud v:nameU="visVersion" v:val="VT0(14):26"/>
			</v:userDefs>
			<path d="M25.51 285.17 L25.51 289.43 L29.76 287.3 L25.51 285.17 Z" class="st5"/>
			<path d="M25.51 285.17 L25.51 289.43 L29.76 287.3 L25.51 285.17" class="st6"/>
			<path d="M0 287.3 L25.51 287.3" class="st6"/>
		</g>
		<g id="shape57-41" v:mID="57" v:groupContext="shape" transform="translate(41.1772,-113.886)">
			<title>框.120</title>
			<desc>Report bolt</desc>
			<v:userDefs>
				<v:ud v:nameU="visVersion" v:val="VT0(14):26"/>
			</v:userDefs>
			<v:textBlock v:margins="rect(4,4,4,4)" v:tabSpace="42.5197"/>
			<v:textRect cx="43.937" cy="273.126" width="87.88" height="28.3465"/>
			<rect x="0" y="258.953" width="87.874" height="28.3465" class="st1"/>
			<text x="13.69" y="276.43" class="st3" v:langID="2052"><v:paragraph v:horizAlign="1"/><v:tabList/>Report bolt</text>		</g>
		<g id="shape58-44" v:mID="58" v:groupContext="shape" transform="translate(-22.5737,-84.79) rotate(-31.8542)">
			<title>单箭头.130</title>
			<desc>Update bsf</desc>
			<v:userDefs>
				<v:ud v:nameU="ControlX" v:val="VT0(0.059055118110236):24"/>
				<v:ud v:nameU="Scale" v:val="VT0(1):26"/>
				<v:ud v:nameU="AntiScale" v:val="VT0(1):26"/>
				<v:ud v:nameU="visVersion" v:val="VT0(14):26"/>
			</v:userDefs>
			<v:textBlock v:margins="rect(4,4,4,4)" v:tabSpace="42.5197"/>
			<v:textRect cx="71.167" cy="287.299" width="142.34" height="0"/>
			<path d="M138.08 285.17 L138.08 289.43 L142.33 287.3 L138.08 285.17 Z" class="st5"/>
			<path d="M138.08 285.17 L138.08 289.43 L142.33 287.3 L138.08 285.17" class="st6"/>
			<path d="M0 287.3 L138.08 287.3" class="st6"/>
			<rect v:rectContext="textBkgnd" x="41.166" y="280.099" width="60.0018" height="14.4001" class="st7"/>
			<text x="41.17" y="290.9" class="st8" v:langID="2052"><v:paragraph v:horizAlign="1"/><v:tabList/>Update bsf</text>		</g>
		<g id="shape59-50" v:mID="59" v:groupContext="shape" transform="translate(106.998,517.175) rotate(-150.161)">
			<title>单箭头.131</title>
			<v:userDefs>
				<v:ud v:nameU="ControlX" v:val="VT0(0.059055118110236):24"/>
				<v:ud v:nameU="Scale" v:val="VT0(1):26"/>
				<v:ud v:nameU="AntiScale" v:val="VT0(1):26"/>
				<v:ud v:nameU="visVersion" v:val="VT0(14):26"/>
			</v:userDefs>
			<path d="M185.78 285.17 L185.78 289.43 L190.03 287.3 L185.78 285.17 Z" class="st5"/>
			<path d="M185.78 285.17 L185.78 289.43 L190.03 287.3 L185.78 285.17" class="st6"/>
			<path d="M0 287.3 L185.78 287.3" class="st6"/>
		</g>
		<g id="shape60-54" v:mID="60" v:groupContext="shape" transform="translate(171.571,313.311) rotate(180)">
			<title>单箭头.132</title>
			<desc>Get input</desc>
			<v:userDefs>
				<v:ud v:nameU="ControlX" v:val="VT0(0.059055118110236):24"/>
				<v:ud v:nameU="Scale" v:val="VT0(1):26"/>
				<v:ud v:nameU="AntiScale" v:val="VT0(1):26"/>
				<v:ud v:nameU="visVersion" v:val="VT0(14):26"/>
			</v:userDefs>
			<v:textBlock v:margins="rect(4,4,4,4)" v:tabSpace="42.5197"/>
			<v:textRect cx="40.6063" cy="287.299" width="81.22" height="0" transform="rotate(180)"/>
			<path d="M76.96 285.17 L76.96 289.43 L81.21 287.3 L76.96 285.17 Z" class="st5"/>
			<path d="M76.96 285.17 L76.96 289.43 L81.21 287.3 L76.96 285.17" class="st9"/>
			<path d="M0 287.3 L76.96 287.3" class="st9"/>
			<rect v:rectContext="textBkgnd" x="-67.6071" y="-294.499" width="54.0016" height="14.4001" transform="rotate(180)"
					class="st7"/>
			<text x="-67.61" y="-283.7" transform="rotate(180)" class="st8" v:langID="2052"><v:paragraph v:horizAlign="1"/><v:tabList/>Get input</text>		</g>
		<g id="shape61-60" v:mID="61" v:groupContext="shape" transform="translate(89.028,-125.258) rotate(-8.00782)">
			<title>单箭头.139</title>
			<desc>Update bsf</desc>
			<v:userDefs>
				<v:ud v:nameU="ControlX" v:val="VT0(0.059055118110236):24"/>
				<v:ud v:nameU="Scale" v:val="VT0(1):26"/>
				<v:ud v:nameU="AntiScale" v:val="VT0(1):26"/>
				<v:ud v:nameU="visVersion" v:val="VT0(14):26"/>
			</v:userDefs>
			<v:textBlock v:margins="rect(4,4,4,4)" v:tabSpace="42.5197"/>
			<v:textRect cx="61.0441" cy="287.299" width="122.09" height="0"/>
			<path d="M117.84 285.17 L117.84 289.43 L122.09 287.3 L117.84 285.17 Z" class="st5"/>
			<path d="M117.84 285.17 L117.84 289.43 L122.09 287.3 L117.84 285.17" class="st6"/>
			<path d="M0 287.3 L117.84 287.3" class="st6"/>
			<rect v:rectContext="textBkgnd" x="31.0432" y="280.099" width="60.0018" height="14.4001" class="st7"/>
			<text x="31.04" y="290.9" class="st8" v:langID="2052"><v:paragraph v:horizAlign="1"/><v:tabList/>Update bsf</text>		</g>
		<g id="shape62-66" v:mID="62" v:groupContext="shape" transform="translate(221.528,-112.769) rotate(18.7768)">
			<title>单箭头.140</title>
			<desc>Update bsf</desc>
			<v:userDefs>
				<v:ud v:nameU="ControlX" v:val="VT0(0.059055118110236):24"/>
				<v:ud v:nameU="Scale" v:val="VT0(1):26"/>
				<v:ud v:nameU="AntiScale" v:val="VT0(1):26"/>
				<v:ud v:nameU="visVersion" v:val="VT0(14):26"/>
			</v:userDefs>
			<v:textBlock v:margins="rect(4,4,4,4)" v:tabSpace="42.5197"/>
			<v:textRect cx="63.8468" cy="287.299" width="127.7" height="0"/>
			<path d="M123.44 285.17 L123.44 289.43 L127.69 287.3 L123.44 285.17 Z" class="st5"/>
			<path d="M123.44 285.17 L123.44 289.43 L127.69 287.3 L123.44 285.17" class="st6"/>
			<path d="M0 287.3 L123.44 287.3" class="st6"/>
			<rect v:rectContext="textBkgnd" x="33.8459" y="280.099" width="60.0018" height="14.4001" class="st7"/>
			<text x="33.85" y="290.9" class="st8" v:langID="2052"><v:paragraph v:horizAlign="1"/><v:tabList/>Update bsf</text>		</g>
		<g id="shape63-72" v:mID="63" v:groupContext="shape" transform="translate(425.697,-107.209)">
			<title>框.141</title>
			<desc>SeriesSearchTopology</desc>
			<v:userDefs>
				<v:ud v:nameU="visVersion" v:val="VT0(14):26"/>
			</v:userDefs>
			<v:textBlock v:margins="rect(4,4,4,4)" v:tabSpace="42.5197"/>
			<v:textRect cx="60.9449" cy="273.126" width="121.89" height="28.3465"/>
			<rect x="0" y="258.953" width="121.89" height="28.3465" class="st1"/>
			<text x="5.94" y="276.43" class="st3" v:langID="2052"><v:paragraph v:horizAlign="1"/><v:tabList/>SeriesSearchTopology</text>		</g>
		<g id="shape64-75" v:mID="64" v:groupContext="shape" transform="translate(199.343,151.744) rotate(-90)">
			<title>单箭头.125</title>
			<v:userDefs>
				<v:ud v:nameU="ControlX" v:val="VT0(0.059055118110236):24"/>
				<v:ud v:nameU="Scale" v:val="VT0(1):26"/>
				<v:ud v:nameU="AntiScale" v:val="VT0(1):26"/>
				<v:ud v:nameU="visVersion" v:val="VT0(14):26"/>
			</v:userDefs>
			<path d="M43.53 285.17 L43.53 289.43 L47.78 287.3 L43.53 285.17 Z" class="st5"/>
			<path d="M43.53 285.17 L43.53 289.43 L47.78 287.3 L43.53 285.17" class="st9"/>
			<path d="M0 287.3 L43.53 287.3" class="st9"/>
		</g>
		<g id="shape65-79" v:mID="65" v:groupContext="shape" transform="translate(444.122,-183.335)">
			<title>圆形</title>
			<desc>query</desc>
			<v:userDefs>
				<v:ud v:nameU="visVersion" v:val="VT0(14):26"/>
			</v:userDefs>
			<v:textBlock v:margins="rect(4,4,4,4)" v:tabSpace="42.5197"/>
			<v:textRect cx="42.5197" cy="267.457" width="85.04" height="39.685"/>
			<path d="M0 267.46 A42.5197 19.8425 0 0 1 85.04 267.46 A42.5197 19.8425 0 1 1 0 267.46 Z" class="st1"/>
			<text x="25.02" y="271.66" class="st10" v:langID="2052"><v:paragraph v:horizAlign="1"/><v:tabList/>query</text>		</g>
		<g id="shape66-82" v:mID="66" v:groupContext="shape" transform="translate(5.3189,-241.445)">
			<title>圆形.121</title>
			<desc>data</desc>
			<v:userDefs>
				<v:ud v:nameU="visVersion" v:val="VT0(14):26"/>
			</v:userDefs>
			<v:textBlock v:margins="rect(4,4,4,4)" v:tabSpace="42.5197"/>
			<v:textRect cx="42.5197" cy="267.457" width="85.04" height="39.685"/>
			<path d="M0 267.46 A42.5197 19.8425 0 0 1 85.04 267.46 A42.5197 19.8425 0 1 1 0 267.46 Z" class="st1"/>
			<text x="28.52" y="271.66" class="st10" v:langID="2052"><v:paragraph v:horizAlign="1"/><v:tabList/>data</text>		</g>
		<g id="shape67-85" v:mID="67" v:groupContext="shape" transform="translate(229.95,376.212) rotate(-137.052)">
			<title>单箭头.122</title>
			<desc>Config</desc>
			<v:userDefs>
				<v:ud v:nameU="ControlX" v:val="VT0(0.059055118110236):24"/>
				<v:ud v:nameU="Scale" v:val="VT0(1):26"/>
				<v:ud v:nameU="AntiScale" v:val="VT0(1):26"/>
				<v:ud v:nameU="visVersion" v:val="VT0(14):26"/>
			</v:userDefs>
			<v:textBlock v:margins="rect(4,4,4,4)" v:tabSpace="42.5197"/>
			<v:textRect cx="60.0256" cy="287.299" width="120.06" height="0" transform="rotate(180)"/>
			<path d="M115.8 285.17 L115.8 289.43 L120.05 287.3 L115.8 285.17 Z" class="st5"/>
			<path d="M115.8 285.17 L115.8 289.43 L120.05 287.3 L115.8 285.17" class="st11"/>
			<path d="M0 287.3 L115.8 287.3" class="st11"/>
			<rect v:rectContext="textBkgnd" x="-78.0261" y="-294.499" width="36.0011" height="14.4001" transform="rotate(180)"
					class="st7"/>
			<text x="-78.03" y="-283.7" transform="rotate(180)" class="st8" v:langID="2052"><v:paragraph v:horizAlign="1"/><v:tabList/>Config</text>		</g>
		<g id="shape68-91" v:mID="68" v:groupContext="shape" transform="translate(350.928,443.317) rotate(-164.915)">
			<title>单箭头.123</title>
			<desc>Config</desc>
			<v:userDefs>
				<v:ud v:nameU="ControlX" v:val="VT0(0.059055118110236):24"/>
				<v:ud v:nameU="Scale" v:val="VT0(1):26"/>
				<v:ud v:nameU="AntiScale" v:val="VT0(1):26"/>
				<v:ud v:nameU="visVersion" v:val="VT0(14):26"/>
			</v:userDefs>
			<v:textBlock v:margins="rect(4,4,4,4)" v:tabSpace="42.5197"/>
			<v:textRect cx="45.505" cy="287.299" width="91.02" height="0" transform="rotate(180)"/>
			<path d="M86.76 285.17 L86.76 289.43 L91.01 287.3 L86.76 285.17 Z" class="st5"/>
			<path d="M86.76 285.17 L86.76 289.43 L91.01 287.3 L86.76 285.17" class="st11"/>
			<path d="M0 287.3 L86.76 287.3" class="st11"/>
			<rect v:rectContext="textBkgnd" x="-63.5055" y="-294.499" width="36.0011" height="14.4001" transform="rotate(-180)"
					class="st7"/>
			<text x="-63.51" y="-283.7" transform="rotate(-180)" class="st8" v:langID="2052"><v:paragraph v:horizAlign="1"/><v:tabList/>Config</text>		</g>
		<g id="shape69-97" v:mID="69" v:groupContext="shape" transform="translate(530.493,433.422) rotate(158.607)">
			<title>单箭头.124</title>
			<desc>Config</desc>
			<v:userDefs>
				<v:ud v:nameU="ControlX" v:val="VT0(0.059055118110236):24"/>
				<v:ud v:nameU="Scale" v:val="VT0(1):26"/>
				<v:ud v:nameU="AntiScale" v:val="VT0(1):26"/>
				<v:ud v:nameU="visVersion" v:val="VT0(14):26"/>
			</v:userDefs>
			<v:textBlock v:margins="rect(4,4,4,4)" v:tabSpace="42.5197"/>
			<v:textRect cx="47.1883" cy="287.299" width="94.38" height="0" transform="rotate(-180)"/>
			<path d="M90.12 285.17 L90.12 289.43 L94.38 287.3 L90.12 285.17 Z" class="st5"/>
			<path d="M90.12 285.17 L90.12 289.43 L94.38 287.3 L90.12 285.17" class="st11"/>
			<path d="M0 287.3 L90.12 287.3" class="st11"/>
			<rect v:rectContext="textBkgnd" x="-65.1889" y="-294.499" width="36.0011" height="14.4001" transform="rotate(180)"
					class="st7"/>
			<text x="-65.19" y="-283.7" transform="rotate(180)" class="st8" v:langID="2052"><v:paragraph v:horizAlign="1"/><v:tabList/>Config</text>		</g>
		<g id="shape70-103" v:mID="70" v:groupContext="shape" transform="translate(634.028,363.753) rotate(133.52)">
			<title>单箭头.127</title>
			<desc>Config</desc>
			<v:userDefs>
				<v:ud v:nameU="ControlX" v:val="VT0(0.059055118110236):24"/>
				<v:ud v:nameU="Scale" v:val="VT0(1):26"/>
				<v:ud v:nameU="AntiScale" v:val="VT0(1):26"/>
				<v:ud v:nameU="visVersion" v:val="VT0(14):26"/>
			</v:userDefs>
			<v:textBlock v:margins="rect(4,4,4,4)" v:tabSpace="42.5197"/>
			<v:textRect cx="63.8057" cy="287.299" width="127.62" height="0" transform="rotate(-180)"/>
			<path d="M123.36 285.17 L123.36 289.43 L127.61 287.3 L123.36 285.17 Z" class="st5"/>
			<path d="M123.36 285.17 L123.36 289.43 L127.61 287.3 L123.36 285.17" class="st11"/>
			<path d="M0 287.3 L123.36 287.3" class="st11"/>
			<rect v:rectContext="textBkgnd" x="-81.806" y="-294.499" width="36.0011" height="14.4001" transform="rotate(-180)"
					class="st7"/>
			<text x="-81.81" y="-283.7" transform="rotate(-180)" class="st8" v:langID="2052"><v:paragraph v:horizAlign="1"/><v:tabList/>Config</text>		</g>
		<g id="shape71-109" v:mID="71" v:groupContext="shape" transform="translate(302.692,-69.6476) rotate(37.185)">
			<title>单箭头.128</title>
			<desc>Update bsf</desc>
			<v:userDefs>
				<v:ud v:nameU="ControlX" v:val="VT0(0.059055118110236):24"/>
				<v:ud v:nameU="Scale" v:val="VT0(1):26"/>
				<v:ud v:nameU="AntiScale" v:val="VT0(1):26"/>
				<v:ud v:nameU="visVersion" v:val="VT0(14):26"/>
			</v:userDefs>
			<v:textBlock v:margins="rect(4,4,4,4)" v:tabSpace="42.5197"/>
			<v:textRect cx="75.8752" cy="287.299" width="151.76" height="0"/>
			<path d="M147.5 285.17 L147.5 289.43 L151.75 287.3 L147.5 285.17 Z" class="st5"/>
			<path d="M147.5 285.17 L147.5 289.43 L151.75 287.3 L147.5 285.17" class="st6"/>
			<path d="M0 287.3 L147.5 287.3" class="st6"/>
			<rect v:rectContext="textBkgnd" x="45.8742" y="280.099" width="60.0018" height="14.4001" class="st7"/>
			<text x="45.87" y="290.9" class="st8" v:langID="2052"><v:paragraph v:horizAlign="1"/><v:tabList/>Update bsf</text>		</g>
		<g id="shape72-115" v:mID="72" v:groupContext="shape" transform="translate(442.295,-150.232)">
			<title>工作表.72</title>
			<desc>Get input</desc>
			<v:textBlock v:margins="rect(4,4,4,4)" v:tabSpace="42.5197"/>
			<v:textRect cx="52" cy="279.299" width="104" height="16"/>
			<rect x="0" y="271.299" width="104" height="16" class="st12"/>
			<text x="25" y="282.9" class="st8" v:langID="2052"><v:paragraph v:horizAlign="1"/><v:tabList/>Get input</text>		</g>
		<g id="shape73-118" v:mID="73" v:groupContext="shape" transform="translate(0.5,-0.5)">
			<title>工作表.73</title>
			<path d="M0 159.74 L228.78 287.3 L354.33 287.3" class="st13"/>
		</g>
		<g id="shape74-121" v:mID="74" v:groupContext="shape" transform="translate(164.909,-0.5)">
			<title>工作表.74</title>
			<path d="M189.92 287.3 L189.92 1.92 L0 1" class="st13"/>
		</g>
		<g id="shape75-124" v:mID="75" v:groupContext="shape" transform="translate(0.5,-128.059)">
			<title>工作表.75</title>
			<path d="M164.41 128.56 L164.41 208.72 L0 287.3" class="st13"/>
		</g>
	</g>
</svg>
